PathFileType	4	(X/Y/Z)	1103211_Cal01.trc	
DataRate	CameraRate	NumFrames	NumMarkers	Units	OrigDataRate	OrigDataStartFrame	OrigNumFrames
128	128	8	46	mm	128	86	337
Frame#	Time    CLAV			RSHO			LSHO			C7			T10			RASI			LASI			RPSI			LPSI			LGTR			RGTR			LMFC			RMFC			LANK			RANK			LMMA			RMMA			LHEE			RHEE			LMT5			RMT5			LTOE			RTOE			RELB			RWRA			RWRB			RFIN			LELB			LWRB			LWRA			LFIN			RFM2			LFM2			LKNE			RKNE			RTP2			RTP3			RTA3			LTP2			LTP3			LBHD			RFHD			RBHD			LUPA			LFRA			RFRA
        X1	Y1	Z1	X3	Y3	Z3	X4	Y4	Z4	X5	Y5	Z5	X6	Y6	Z6	X8	Y8	Z8	X9	Y9	Z9	X10	Y10	Z10	X11	Y11	Z11	X12	Y12	Z12	X13	Y13	Z13	X16	Y16	Z16	X17	Y17	Z17	X22	Y22	Z22	X23	Y23	Z23	X24	Y24	Z24	X25	Y25	Z25	X26	Y26	Z26	X27	Y27	Z27	X28	Y28	Z28	X29	Y29	Z29	X30	Y30	Z30	X31	Y31	Z31	X32	Y32	Z32	X33	Y33	Z33	X34	Y34	Z34	X35	Y35	Z35	X36	Y36	Z36	X37	Y37	Z37	X38	Y38	Z38	X39	Y39	Z39	X44	Y44	Z44	X53	Y53	Z53	X58	Y58	Z58	X59	Y59	Z59	X61	Y61	Z61	X62	Y62	Z62	X65	Y65	Z65	X67	Y67	Z67	X68	Y68	Z68	X71	Y71	Z71	X72	Y72	Z72	X73	Y73	Z73	X74	Y74	Z74	X75	Y75	Z75	X77	Y77	Z77
85	0.28	190.05635	1375.40845	-47.60225	89.58653	1425.01221	89.47868	87.85567	1433.54993	-192.03505	50.31659	1429.54016	-46.39397	15.99309	1134.98889	-51.86327	181.25032	946.84619	61.87862	176.67964	953.06793	-165.47441	0.61415	955.98004	0.21472	-0.88312	954.88867	-97.87743	110.42812	868.9303	-216.63051	110.90529	858.15063	119.56085	64.00998	466.55991	-83.48067	65.92987	471.83463	-15.3062	57.54198	91.06645	-206.97777	55.88849	87.33402	108.5984	73.45012	98.62238	-121.22334	80.65227	92.81986	24.9496	-14.71716	59.92624	-159.29494	-15.88803	62.96959	60.17278	168.56532	30.9129	-243.545	165.70441	40.85982	157.76172	212.91237	64.85289	-176.04436	214.54344	65.17281	91.10602	62.80765	1298.46729	348.12915	93.17671	1313.73926	592.91376	59.66846	1248.70813	587.5625	56.81506	1302.47949	667.6676	43.18137	1302.85291	-436.14648	37.25347	1264.75317	-685.56354	69.27696	1326.35437	-679.52777	30.80001	1321.29431	-758.82886	177.84801	717.29004	118.42392	167.0345	718.76508	-217.38219	78.10109	485.36313	-209.02669	88.89645	479.05295	109.28923	55.26253	268.92197	125.78336	54.631	182.67873	114.575	108.19742	232.83847	65.07736	65.64488	279.04294	-225.42149	62.33632	194.03893	-216.6808	75.05319	1608.17981	-128.5529	179.36156	1626.29187	39.05016	43.13139	1597.11414	35.24109	63.57874	1394.66357	-292.5069	26.03443	1308.53699	-584.38879	46.4875	1295.42358	432.13159
86	0.28333	190.0601	1375.38953	-47.60902	89.58057	1424.99817	89.48125	87.86707	1433.53467	-192.03856	50.31458	1429.55103	-46.386	15.99369	1134.98499	-51.86302	181.25002	946.84595	61.87422	176.70845	953.12018	-165.47688	0.62126	955.98169	0.18892	-0.86331	954.91229	-97.90279	110.50694	868.91223	-216.62587	110.90346	858.16113	119.55141	64.03052	466.57254	-83.45848	65.96263	471.7923	-15.30928	57.52324	91.07012	-206.97899	55.89842	87.33882	108.60747	73.52303	98.65165	-121.22014	80.6552	92.83379	24.9657	-14.70381	59.91211	-159.28728	-15.84462	62.96307	60.17227	168.6398	30.91183	-243.53807	165.72044	40.84399	157.74168	212.94804	64.86002	-176.04179	214.56062	65.16396	91.10236	62.80026	1298.44556	348.13263	93.14273	1313.67346	592.90741	59.64134	1248.67261	587.58124	56.75832	1302.46692	667.62	43.14206	1302.85986	-436.11438	37.10446	1264.77856	-685.49182	69.18256	1326.33862	-679.55981	30.68355	1321.29712	-758.83612	177.84209	717.29675	118.38615	167.01988	718.76636	-217.36653	78.15279	485.36014	-209.01183	88.93927	479.05072	109.27956	55.25253	268.9111	125.75719	54.62706	182.66782	114.57677	108.18004	232.84308	65.07568	65.63234	279.05545	-225.42473	62.35266	194.04951	-216.683	75.03468	1608.16711	-128.54729	179.3131	1626.27905	39.05193	43.1173	1597.1001	35.22127	63.54924	1394.29041	-292.54047	26.03164	1308.53735	-584.38898	46.43036	1295.41956	432.13208
87	0.28667	190.04836	1375.3916	-47.61736	89.57153	1424.98401	89.43768	87.84804	1433.53491	-192.03236	50.31416	1429.5304	-46.39211	15.99198	1134.96899	-51.85945	181.28142	946.87518	61.81989	176.72527	953.09546	-165.52388	0.64695	955.95862	0.14357	-0.84332	954.89484	-97.94157	110.4749	868.93573	-216.66753	110.89011	858.16968	119.55641	63.99777	466.60934	-83.45396	65.91106	471.76767	-15.30431	57.55754	91.07362	-206.96117	55.94099	87.33537	108.60434	73.54279	98.65241	-121.22237	80.65407	92.8303	24.96779	-14.7182	59.91295	-159.29338	-15.83678	62.94514	60.15367	168.46982	30.79213	-243.61549	165.75056	40.8564	157.73602	212.95372	64.85568	-176.08128	214.54958	65.15798	91.10782	62.76904	1298.42297	348.14978	93.07727	1313.65698	592.90601	59.63791	1248.64783	587.58746	56.75539	1302.44385	667.61157	43.14119	1302.82434	-436.11243	37.01669	1264.75085	-685.4834	69.18146	1326.31177	-679.53882	30.69789	1321.27502	-758.80768	177.84749	717.2868	118.39485	167.0354	718.74725	-217.38512	78.15392	485.36566	-209.02626	88.93156	479.03604	109.25273	55.26128	268.93069	125.76822	54.61754	182.67226	114.56424	108.19685	232.8441	65.04529	65.62672	279.01022	-225.42671	62.3541	194.04211	-216.68462	75.0139	1608.18811	-128.50789	179.35701	1626.26868	39.05966	43.08567	1597.104	35.25398	63.56598	1394.25159	-292.56268	26.01779	1308.52649	-584.4173	46.42804	1295.4198	432.13254
88	0.29	190.04985	1375.42139	-47.62721	89.56868	1425.01575	89.43217	87.78561	1433.55713	-192.05296	50.29767	1429.55542	-46.45711	15.96101	1134.95764	-51.87193	181.26891	946.88068	61.83304	176.70253	953.06067	-165.51878	0.63317	955.9859	0.1637	-0.86201	954.88196	-97.9265	110.43208	868.94525	-216.66103	110.92636	858.17816	119.50487	64.02109	466.6102	-83.49013	65.98131	471.77698	-15.32515	57.55423	91.06822	-206.95891	55.91713	87.33968	108.6075	73.49088	98.67194	-121.21498	80.60628	92.85278	24.95447	-14.72723	59.92425	-159.32588	-15.85813	62.95768	60.14671	168.50635	30.80936	-243.60008	165.72762	40.88015	157.70949	212.96413	64.86227	-176.09492	214.54317	65.18109	91.09204	62.70856	1298.38708	348.09882	93.04619	1313.64868	592.91278	59.63965	1248.60535	587.54932	56.69304	1302.41663	667.59827	43.15504	1302.79224	-436.11426	36.99441	1264.72998	-685.46716	69.15575	1326.29834	-679.56451	30.64178	1321.25488	-758.82654	177.87834	717.29419	118.36401	167.03661	718.73956	-217.38728	78.15167	485.37442	-209.04152	88.91258	479.07364	109.24925	55.24664	268.93671	125.78281	54.60762	182.7133	114.55711	108.23059	232.93121	65.06277	65.58566	279.03662	-225.42906	62.32994	194.039	-216.69298	74.98759	1608.20361	-128.5453	179.41774	1626.28271	39.02837	43.09554	1597.10388	35.24782	63.50612	1394.26184	-292.52521	26.01777	1308.51221	-584.41571	46.42059	1295.43237	432.12238
89	0.29333	190.0569	1375.43042	-47.65535	89.55153	1425.03662	89.4381	87.76007	1433.58215	-192.0649	50.28777	1429.55884	-46.4511	15.93481	1134.96167	-51.90886	181.28694	946.92273	61.83148	176.67366	953.05554	-165.52193	0.63675	955.98059	0.19746	-0.87718	954.88342	-97.89378	110.47485	868.97101	-216.65831	110.91937	858.18073	119.50951	64.01967	466.80911	-83.58904	65.92152	471.75381	-15.32866	57.52434	91.0685	-206.96953	55.92813	87.37811	108.60268	73.40866	98.71012	-121.21733	80.59419	92.87346	24.95296	-14.6897	59.9018	-159.33153	-15.88739	62.99295	60.12747	168.51532	30.81111	-243.59496	165.72469	40.891	157.69339	212.9529	64.87685	-176.10042	214.49944	65.18536	91.11942	62.7063	1298.38269	348.09293	93.00294	1313.59229	592.90332	59.56622	1248.57605	587.53467	56.67879	1302.39478	667.57367	43.11515	1302.77173	-436.09436	36.92225	1264.71948	-685.50366	69.09644	1326.29529	-679.56335	30.60133	1321.2489	-758.81335	177.86732	717.3222	118.35451	167.01311	718.77563	-217.39336	78.14267	485.39227	-209.01097	88.90399	479.08945	109.25372	55.24393	268.90521	125.84557	54.60393	182.71284	114.55511	108.2444	232.91103	65.00473	65.58101	279.09045	-225.42934	62.32597	194.02368	-216.71367	74.96078	1608.17334	-128.59496	179.34508	1626.30591	39.01898	43.07292	1597.04724	35.27251	63.49384	1394.26135	-292.52893	25.98444	1308.51428	-584.39307	46.40567	1295.40417	432.09796
90	0.29667	190.0472	1375.47412	-47.69115	89.49957	1425.04468	89.41045	87.75015	1433.6123	-192.06267	50.28897	1429.56592	-46.47575	15.88036	1134.95288	-51.90834	181.29362	946.93463	61.76682	176.62117	953.07404	-165.57799	0.62656	955.97559	0.17981	-0.91288	954.89703	-97.90565	110.40251	869.13245	-216.70561	110.92091	858.19489	119.50574	63.89372	466.66519	-83.52293	65.95036	471.75317	-15.31496	57.51137	91.04859	-206.95711	55.89638	87.34676	108.57205	73.35988	98.70975	-121.26656	80.53101	92.84888	24.94594	-14.70789	59.89991	-159.30608	-15.86777	62.99802	60.11243	168.47462	30.81197	-243.59169	165.70523	40.90909	157.68677	212.96892	64.90321	-176.10713	214.53764	65.22064	91.07979	62.66241	1298.34082	348.07971	92.95567	1313.59253	592.89447	59.54916	1248.52771	587.54248	56.62871	1302.36816	667.57507	43.11122	1302.76807	-436.09351	36.90127	1264.65454	-685.45972	69.08525	1326.31116	-679.56287	30.59213	1321.22913	-758.81488	177.85823	717.31183	118.35797	167.04048	718.79358	-217.41643	78.11284	485.4072	-209.03389	88.90855	479.12079	109.2272	55.22926	268.96234	125.75645	54.6214	182.71866	114.55374	108.23625	232.97279	65.01476	65.54134	279.10504	-225.41374	62.30568	194.07196	-216.71712	74.92952	1608.17358	-128.57137	179.32439	1626.32117	39.0177	43.09019	1597.02954	35.25531	63.52458	1394.29102	-292.54346	25.94553	1308.5321	-584.38208	46.36473	1295.37817	432.04901
91	0.3	190.00032	1375.48145	-47.68578	89.50565	1425.04297	89.38966	87.76456	1433.58423	-192.08891	50.28766	1429.56128	-46.515	15.91611	1134.90088	-51.90791	181.30168	946.93359	61.76341	176.68925	953.07745	-165.57994	0.65191	955.99078	0.12807	-0.86306	954.87665	-97.95491	110.37469	869.13483	-216.72939	110.91122	858.19104	119.48035	63.90457	466.80783	-83.56331	65.91447	471.78171	-15.33723	57.45377	91.07257	-206.98528	55.88988	87.36409	108.60002	73.29138	98.74268	-121.27486	80.53001	92.86677	24.93364	-14.69784	59.90992	-159.31282	-15.86081	62.94466	60.11374	168.44164	30.83094	-243.62004	165.70438	40.90946	157.68701	212.94765	64.90469	-176.09721	214.46794	65.23663	91.11696	62.65764	1298.33337	348.04541	92.89687	1313.58594	592.86176	59.55223	1248.52551	587.54303	56.58495	1302.35999	667.51624	43.05423	1302.7511	-436.14899	36.87739	1264.6366	-685.48584	69.04362	1326.29773	-679.58429	30.56873	1321.23254	-758.82941	177.85661	717.32312	118.34496	167.02377	718.83771	-217.42256	78.10384	485.4194	-209.05788	88.88487	479.11526	109.23825	55.22636	268.97168	125.73566	54.62956	182.71944	114.55154	108.23737	233.02136	65.03514	65.64163	279.05203	-225.46706	62.32077	194.06534	-216.7296	74.89644	1608.15369	-128.58858	179.2606	1626.31836	38.97859	43.02949	1597.02478	35.21005	63.47314	1394.30188	-292.56293	25.92665	1308.50439	-584.40973	46.36359	1295.37744	432.04657
92	0.30333	189.99486	1375.50134	-47.67928	89.49144	1425.03381	89.37885	87.74873	1433.58228	-192.06966	50.2478	1429.56567	-46.5106	15.92067	1134.93372	-51.90773	181.29979	946.94128	61.75699	176.72728	953.14514	-165.58455	0.65874	955.95917	0.09035	-0.83829	954.85535	-97.99202	110.36334	869.12964	-216.71025	110.89998	858.19672	119.48788	63.92805	466.83072	-83.58757	65.89574	471.7851	-15.34132	57.47018	91.09246	-206.97755	55.90479	87.36806	108.57518	73.28067	98.74673	-121.27235	80.55128	92.90202	24.96324	-14.68056	59.91498	-159.32759	-15.86024	62.9677	60.10934	168.4268	30.82865	-243.64006	165.69395	40.93189	157.69556	212.96745	64.94383	-176.09523	214.52907	65.24249	91.09355	62.64543	1298.31372	348.03925	92.86858	1313.58496	592.86475	59.50598	1248.49011	587.48065	56.537	1302.32703	667.53314	43.04673	1302.75586	-436.15125	36.90878	1264.61768	-685.50696	69.05865	1326.28821	-679.5838	30.46648	1321.22314	-758.82239	177.85387	717.32007	118.31804	167.02173	718.8457	-217.42146	78.11862	485.40332	-209.05867	88.89462	479.1171	109.24976	55.2148	268.92505	125.81346	54.62617	182.726	114.55458	108.24582	232.98276	64.99799	65.6658	279.04987	-225.47029	62.34311	194.08549	-216.71263	74.87733	1608.21667	-128.59096	179.339	1626.33081	38.99306	43.03313	1597.03479	35.18317	63.46483	1394.28857	-292.57849	25.88753	1308.48035	-584.39771	46.32852	1295.34875	432.06537
